<svg width="19" height="21" viewBox="0 0 19 21" fill="none" xmlns="http://www.w3.org/2000/svg">
<path d="M15.9251 5.39285L15.9252 5.39298C17.3638 7.68157 18.0625 9.9202 18.0625 12.241C18.0625 14.5119 17.1604 16.6898 15.5546 18.2956C13.9488 19.9014 11.7709 20.8035 9.5 20.8035C7.22908 20.8035 5.05118 19.9014 3.4454 18.2956C1.83962 16.6898 0.9375 14.5119 0.9375 12.241C0.9375 10.0926 1.85865 7.61096 3.68333 4.8599L3.63129 4.82538L3.6832 4.8601C3.73346 4.78498 3.79804 4.72051 3.87324 4.67037C3.94843 4.62025 4.03275 4.58544 4.1214 4.56793C4.30024 4.53361 4.48542 4.57066 4.63729 4.67116C4.63732 4.67118 4.63735 4.6712 4.63738 4.67122L7.65592 6.6867L7.71596 6.72679L7.74704 6.66163L10.6439 0.586653C10.6439 0.586644 10.6439 0.586635 10.6439 0.586625C10.6913 0.487307 10.7622 0.401024 10.8505 0.335227C10.9387 0.269424 11.0416 0.226088 11.1503 0.208963L11.1504 0.208971L11.1513 0.208803C11.2594 0.190038 11.3704 0.197408 11.4751 0.230299C11.5796 0.26317 11.6748 0.320573 11.7527 0.397726C13.1303 1.77526 14.7104 3.44922 15.9251 5.39285ZM15.1212 13.1127L15.1219 13.1128V13.1035V13.1002C15.1424 12.9943 15.1416 12.8854 15.1196 12.7798C15.0971 12.6721 15.053 12.5701 14.99 12.48C14.9269 12.3898 14.8462 12.3134 14.7527 12.2554C14.6593 12.1974 14.555 12.1589 14.4462 12.1424C14.3375 12.1259 14.2265 12.1316 14.12 12.1593C14.0135 12.1869 13.9138 12.2359 13.8268 12.3033C13.7398 12.3706 13.6674 12.4549 13.614 12.5511C13.5608 12.6467 13.5276 12.7521 13.5161 12.8608C13.3779 13.7091 12.9765 14.4925 12.3687 15.1003C11.7605 15.7085 10.9765 16.11 10.1276 16.248C9.92631 16.2801 9.74443 16.3867 9.61806 16.5467C9.49168 16.7066 9.43005 16.9082 9.44539 17.1115C9.46073 17.3148 9.55193 17.5049 9.70089 17.6441C9.84985 17.7832 10.0457 17.8613 10.2495 17.8629H10.25H10.3625V17.8635L10.3718 17.8622C11.5674 17.6828 12.674 17.1247 13.5288 16.2698C14.3837 15.4149 14.9418 14.3084 15.1212 13.1127Z" fill="black" stroke="white" stroke-width="0.125"/>
</svg>
